{
  "accessors": [
    {
      "bufferView": 2,
      "componentType": 5126,
      "count": 2662,
      "max": [
        50.0,
        49.901336669921875,
        100.0
      ],
      "min": [
        -50.0,
        -49.901336669921875,
        0.0
      ],
      "type": "VEC3"
    },
    {
      "bufferView": 2,
      "byteOffset": 31944,
      "componentType": 5126,
      "count": 2662,
      "max": [
        1.0,
        0.9980267286300659,
        1.0
      ],
      "min": [
        -1.0,
        -0.9980267286300659,
        -1.0
      ],
      "type": "VEC3"
    },
    {
      "bufferView": 3,
      "componentType": 5126,
      "count": 2662,
      "max": [
        0.999118447303772,
        1.0,
        0.03136640042066574,
        1.0
      ],
      "min": [
        -0.9998117685317993,
        -1.0,
        -0.03136631101369858,
        -1.0
      ],
      "type": "VEC4"
    },
    {
      "bufferView": 1,
      "componentType": 5126,
      "count": 2662,
      "max": [
        1.0,
        1.0
      ],
      "min": [
        -0.019999999552965164,
        0.0
      ],
      "type": "VEC2"
    },
    {
      "bufferView": 1,
      "byteOffset": 21296,
      "componentType": 5126,
      "count": 2662,
      "max": [
        1.0,
        1.0
      ],
      "min": [
        -0.019999999552965164,
        0.0
      ],
      "type": "VEC2"
    },
    {
      "bufferView": 1,
      "byteOffset": 42592,
      "componentType": 5126,
      "count": 2662,
      "max": [
        1.0,
        1.0
      ],
      "min": [
        -0.019999999552965164,
        0.0
      ],
      "type": "VEC2"
    },
    {
      "bufferView": 1,
      "byteOffset": 63888,
      "componentType": 5126,
      "count": 2662,
      "max": [
        1.0,
        1.0
      ],
      "min": [
        -0.019999999552965164,
        0.0
      ],
      "type": "VEC2"
    },
    {
      "bufferView": 0,
      "componentType": 5125,
      "count": 14700,
      "type": "SCALAR"
    }
  ],
  "asset": {
    "extras": {
      "author": "kmis (https://sketchfab.com/kmis)",
      "license": "CC-BY-4.0 (http://creativecommons.org/licenses/by/4.0/)",
      "source": "https://sketchfab.com/3d-models/pearl-b2111f040d1540dba4421ec91ed87ef8",
      "title": "Pearl"
    },
    "generator": "Sketchfab-12.66.0",
    "version": "2.0"
  },
  "bufferViews": [
    {
      "buffer": 0,
      "byteLength": 58800,
      "name": "floatBufferViews",
      "target": 34963
    },
    {
      "buffer": 0,
      "byteLength": 85184,
      "byteOffset": 58800,
      "byteStride": 8,
      "name": "floatBufferViews",
      "target": 34962
    },
    {
      "buffer": 0,
      "byteLength": 63888,
      "byteOffset": 143984,
      "byteStride": 12,
      "name": "floatBufferViews",
      "target": 34962
    },
    {
      "buffer": 0,
      "byteLength": 42592,
      "byteOffset": 207872,
      "byteStride": 16,
      "name": "floatBufferViews",
      "target": 34962
    }
  ],
  "buffers": [
    {
      "byteLength": 250464,
      "uri": "scene.bin"
    }
  ],
  "extensionsUsed": [
    "KHR_materials_clearcoat"
  ],
  "images": [
    {
      "uri": "textures/Sphere_material_baseColor.jpeg"
    },
    {
      "uri": "textures/Sphere_material_metallicRoughness.png"
    },
    {
      "uri": "textures/Sphere_material_normal.jpeg"
    }
  ],
  "materials": [
    {
      "emissiveFactor": [
        0.2,
        0.2,
        0.2
      ],
      "extensions": {
        "KHR_materials_clearcoat": {
          "clearcoatFactor": 1.0,
          "clearcoatRoughnessFactor": 0.04
        }
      },
      "name": "Sphere_material",
      "normalTexture": {
        "index": 2,
        "scale": 0.1
      },
      "pbrMetallicRoughness": {
        "baseColorTexture": {
          "index": 0
        },
        "metallicRoughnessTexture": {
          "index": 1
        },
        "roughnessFactor": 0.20790289676550663
      }
    }
  ],
  "meshes": [
    {
      "name": "Object_0",
      "primitives": [
        {
          "attributes": {
            "NORMAL": 1,
            "POSITION": 0,
            "TANGENT": 2,
            "TEXCOORD_0": 3,
            "TEXCOORD_1": 4,
            "TEXCOORD_2": 5,
            "TEXCOORD_3": 6
          },
          "indices": 7,
          "material": 0,
          "mode": 4
        }
      ]
    }
  ],
  "nodes": [
    {
      "children": [
        1
      ],
      "matrix": [
        1.0,
        0.0,
        0.0,
        0.0,
        0.0,
        2.220446049250313e-16,
        -1.0,
        0.0,
        0.0,
        1.0,
        2.220446049250313e-16,
        0.0,
        0.0,
        0.0,
        0.0,
        1.0
      ],
      "name": "Sketchfab_model"
    },
    {
      "children": [
        2
      ],
      "name": "root"
    },
    {
      "children": [
        3
      ],
      "matrix": [
        1.0,
        0.0,
        0.0,
        0.0,
        0.0,
        2.220446049250313e-16,
        1.0,
        0.0,
        0.0,
        -1.0,
        2.220446049250313e-16,
        0.0,
        0.0,
        0.0,
        0.0,
        1.0
      ],
      "name": "GLTF_SceneRootNode"
    },
    {
      "children": [
        4
      ],
      "matrix": [
        0.02539999969303608,
        0.0,
        -0.0,
        0.0,
        -0.0,
        0.0,
        -0.02539999969303608,
        0.0,
        0.0,
        0.02539999969303608,
        0.0,
        0.0,
        -3.609557054039112e-16,
        0.0,
        0.0,
        1.0
      ],
      "name": "Group_0"
    },
    {
      "children": [
        5
      ],
      "name": "Sphere_1"
    },
    {
      "mesh": 0,
      "name": "Object_5"
    }
  ],
  "samplers": [
    {
      "magFilter": 9729,
      "minFilter": 9987,
      "wrapS": 10497,
      "wrapT": 10497
    }
  ],
  "scene": 0,
  "scenes": [
    {
      "name": "Sketchfab_Scene",
      "nodes": [
        0
      ]
    }
  ],
  "textures": [
    {
      "sampler": 0,
      "source": 0
    },
    {
      "sampler": 0,
      "source": 1
    },
    {
      "sampler": 0,
      "source": 2
    }
  ]
}
